<svg width="59" height="59" viewBox="0 0 59 59" fill="none" xmlns="http://www.w3.org/2000/svg">
<path d="M29.4545 14.3173C26.4633 14.3173 23.5393 15.2035 21.0522 16.8637C18.5651 18.524 16.6267 20.8838 15.482 23.6447C14.3373 26.4056 14.0378 29.4437 14.6213 32.3746C15.2049 35.3056 16.6453 37.9979 18.7604 40.111C20.8755 42.2241 23.5703 43.6632 26.504 44.2462C29.4378 44.8292 32.4787 44.53 35.2422 43.3864C38.0057 42.2428 40.3677 40.3061 42.0295 37.8214C43.6914 35.3366 44.5784 32.4153 44.5784 29.4269C44.5832 27.4413 44.1954 25.4743 43.437 23.639C42.6787 21.8036 41.5649 20.136 40.1595 18.732C38.7542 17.3279 37.085 16.2151 35.2479 15.4575C33.4108 14.6999 31.442 14.3124 29.4545 14.3173ZM29.4545 39.2666C27.5066 39.2666 25.6024 38.6895 23.9828 37.6083C22.3631 36.5271 21.1008 34.9904 20.3553 33.1924C19.6099 31.3944 19.4148 29.416 19.7949 27.5073C20.1749 25.5986 21.1129 23.8453 22.4903 22.4692C23.8677 21.0931 25.6226 20.156 27.5331 19.7763C29.4436 19.3966 31.4239 19.5915 33.2236 20.3362C35.0232 21.081 36.5614 22.3421 37.6436 23.9603C38.7258 25.5784 39.3035 27.4808 39.3035 29.4269C39.3035 32.0365 38.2658 34.5393 36.4188 36.3846C34.5718 38.2299 32.0666 39.2666 29.4545 39.2666ZM48.7466 13.6908C48.7466 14.4197 48.5303 15.1322 48.125 15.7382C47.7196 16.3443 47.1435 16.8166 46.4695 17.0955C45.7955 17.3745 45.0538 17.4474 44.3383 17.3053C43.6227 17.1631 42.9654 16.8121 42.4496 16.2967C41.9337 15.7813 41.5824 15.1246 41.44 14.4098C41.2977 13.6949 41.3708 12.9539 41.6499 12.2805C41.9291 11.6071 42.4019 11.0315 43.0085 10.6266C43.6152 10.2217 44.3283 10.0055 45.0579 10.0055C46.0362 10.0055 46.9744 10.3938 47.6662 11.0849C48.358 11.776 48.7466 12.7134 48.7466 13.6908ZM58.7431 17.3761C58.8544 12.7939 57.1433 8.35451 53.9846 5.0304C52.346 3.4479 50.4112 2.2037 48.2908 1.36899C46.1704 0.534275 43.9061 0.125429 41.6274 0.165837C36.832 -0.0552791 22.0771 -0.0552791 17.2817 0.165837C12.6974 0.0666635 8.25823 1.77446 4.92446 4.91984C1.76577 8.24395 0.0546607 12.6834 0.165993 17.2655C-0.055331 22.0564 -0.055331 36.7975 0.165993 41.5883C0.0546607 46.1704 1.76577 50.6099 4.92446 53.934C8.25823 57.0793 12.6974 58.7871 17.2817 58.688C22.1509 58.9828 36.7582 58.9828 41.6274 58.688C46.2138 58.7992 50.6574 57.0897 53.9846 53.934C57.1433 50.6099 58.8544 46.1704 58.7431 41.5883C58.9644 36.7975 58.9644 22.0564 58.7431 17.2655V17.3761ZM52.4722 46.8582C51.9714 48.1258 51.2153 49.277 50.2509 50.2405C49.2864 51.2041 48.1341 51.9595 46.8654 52.4599C41.139 53.6165 35.2848 54.013 29.4545 53.6391C23.6365 54.0098 17.795 53.6133 12.0806 52.4599C10.8119 51.9595 9.6596 51.2041 8.69513 50.2405C7.73065 49.277 6.97456 48.1258 6.47373 46.8582C4.92446 42.9519 5.25645 33.7387 5.25645 29.4638C5.25645 25.1888 4.92446 15.9388 6.47373 12.0693C6.96043 10.7893 7.71112 9.62579 8.67706 8.65441C9.643 7.68302 10.8026 6.92543 12.0806 6.4308C17.795 5.27739 23.6365 4.88088 29.4545 5.25151C35.2848 4.87763 41.139 5.27415 46.8654 6.4308C48.1341 6.93116 49.2864 7.68654 50.2509 8.65011C51.2153 9.61369 51.9714 10.7649 52.4722 12.0324C54.0215 15.9388 53.6526 25.152 53.6526 29.4269C53.6526 33.7018 54.0215 42.9519 52.4722 46.8214V46.8582Z" fill="#FEFEFE"/>
</svg>
